<svg height="106pt" viewBox="0 0 432 55" width="833pt" xmlns="http://www.w3.org/2000/svg" xmlns:xlink="http://www.w3.org/1999/xlink"><symbol id="a" overflow="visible"><path d="m7.015625-3.625h-2.46875v.71875h1.546875v2.015625c0 .3125-1.21875.375-1.484375.375-1.8125 0-2.796875-1.953125-2.796875-3.640625 0-1.65625.984375-3.65625 2.78125-3.65625.703125 0 1.328125.21875 1.90625.640625.09375.0625.15625.125.25.171875.046875-.296875.15625-.609375.15625-.90625 0-.3125-1.5-.65625-2.25-.65625-2.34375 0-3.875 2.171875-3.875 4.25 0 1.84375.875 4 3.09375 4.484375.234375.046875.46875.0625.71875.0625.765625 0 1.578125-.15625 2.265625-.515625.09375-.015625.15625-.046875.15625-.1875zm0 0"/></symbol><symbol id="b" overflow="visible"><path d="m1.125-8.3125v8.296875h.921875v-8.296875zm0 0"/></symbol><symbol id="c" overflow="visible"><path d="m1.125-8.28125v8.265625h.921875v-3.78125h3.625v-.703125h-3.625v-3.03125h4.09375v-.75zm0 0"/></symbol><symbol id="d" overflow="visible"><path d="m1.171875-5.3125h-.859375v.6875h.859375v4.609375h.890625v-4.609375h1.375v-.6875h-1.390625v-1.6875c0-.4375.09375-1.125.71875-1.125.28125 0 .46875.109375.671875.21875v-.703125c0-.21875-.515625-.234375-.703125-.234375h-.03125c-1.0625 0-1.53125 1.296875-1.53125 2.203125zm3.25 0v5.296875h.890625v-5.296875zm-.03125-3.421875v.96875h.96875v-.96875zm0 0"/></symbol><symbol id="e" overflow="visible"><path d="m.921875-8.71875v8.703125h.890625v-8.703125zm0 0"/></symbol><symbol id="f" overflow="visible"><path d="m4.71875-1.296875c-.1875.140625-.375.296875-.578125.40625-.34375.15625-.75.28125-1.125.28125-.984375 0-1.828125-.859375-1.828125-2.078125h3.640625c0-1.3125-.5-2.8125-2.0625-2.8125-1.5 0-2.328125 1.5-2.328125 2.84375v.0625c0 1.375 1.046875 2.703125 2.53125 2.703125.515625 0 1.828125-.34375 1.828125-.703125 0-.234375-.0625-.46875-.078125-.703125zm-3.453125-2.046875c.09375-.65625.71875-1.390625 1.421875-1.4375h.078125c.9375 0 1.28125.765625 1.4375 1.4375zm0 0"/></symbol><symbol id="g" overflow="visible"><path d="m1.140625-8.3125v8.296875h.921875v-3.453125h2.125c1.375-.109375 2.59375-1.078125 2.59375-2.4375v-.109375c-.078125-1.453125-1.515625-2.296875-2.890625-2.296875-.203125 0-.40625 0-.609375 0zm.890625 4.15625v-3.484375h1.875c.953125.0625 1.921875.625 1.921875 1.75 0 1.015625-.828125 1.640625-1.9375 1.734375zm0 0"/></symbol><symbol id="h" overflow="visible"><path d="m1.125-8.3125v8.296875h.921875l.015625-7.4375c.015625.28125.140625.5625.21875.8125.53125 1.578125 1.109375 3.125 1.6875 4.671875l.4375 1.125c.0625.1875.140625.375.203125.578125h.890625c.0625-.203125.140625-.390625.21875-.578125l.40625-1.109375c.59375-1.5625 1.171875-3.109375 1.71875-4.671875.078125-.265625.203125-.546875.234375-.828125l.015625 7.4375h.921875v-8.296875h-1.359375l-2.390625 6.40625-.25.78125-.71875-2.03125-1.921875-5.15625zm0 0"/></symbol><symbol id="i" overflow="visible"><path d="m.46875-1.25c-.046875.25-.140625.53125-.140625.75 0 .3125 1.21875.53125 1.328125.5625.203125.03125.421875.046875.640625.046875.90625 0 1.90625-.390625 1.90625-1.609375 0-.765625-.53125-1.375-1.21875-1.59375-.609375-.1875-1.75-.125-1.75-.96875 0-.546875.5-.734375.984375-.734375.5 0 1 .09375 1.421875.34375.09375.03125.15625.078125.25.109375l.125-.78125c-.578125-.234375-1.09375-.375-1.703125-.375-.921875 0-1.921875.40625-1.921875 1.515625 0 .75.53125 1.28125 1.203125 1.515625.484375.171875 1.78125.125 1.78125 1.03125 0 .59375-.609375.8125-1.109375.8125-.703125 0-1.1875-.265625-1.796875-.625zm0 0"/></symbol><symbol id="j" overflow="visible"><path d="m.6875-1.5625c-.046875.296875-.15625.625-.15625.890625 0 .234375.84375.578125 1.265625.703125.4375.125.90625.203125 1.359375.203125.921875 0 2.046875-.40625 2.484375-1.53125.125-.265625.1875-.5625.203125-.84375v-.125c0-1.0625-.703125-1.984375-1.703125-2.34375-.859375-.328125-1.921875-.25-2.4375-1.15625-.09375-.1875-.15625-.390625-.15625-.59375 0-.84375.84375-1.390625 1.59375-1.4375h.140625c.625 0 1.28125.1875 1.75.609375.078125.078125.15625.140625.234375.1875.046875-.296875.15625-.609375.15625-.90625 0-.203125-.796875-.46875-1.21875-.5625-.3125-.046875-.609375-.09375-.90625-.09375-1.140625 0-2.65625.703125-2.65625 2.359375 0 1.09375.859375 1.9375 1.828125 2.203125.984375.28125 2.46875.34375 2.46875 1.875v.09375c-.078125.828125-.796875 1.4375-1.609375 1.484375h-.15625c-.8125 0-1.625-.3125-2.234375-.8125-.078125-.078125-.15625-.15625-.25-.203125zm0 0"/></symbol><symbol id="k" overflow="visible"><path d="m.171875-8.3125c.0625.25.15625.46875.25.703125l.53125 1.390625c.546875 1.40625 1.078125 2.8125 1.609375 4.21875l.5625 1.515625c.0625.140625.125.453125.234375.46875h.9375c.171875 0 .25-.34375.3125-.515625.890625-2.296875 1.71875-4.59375 2.625-6.90625.109375-.28125.265625-.609375.3125-.875h-.78125c-.171875 0-.171875.125-.234375.25-.203125.609375-.453125 1.21875-.6875 1.828125-.453125 1.1875-.921875 2.390625-1.34375 3.578125-.140625.390625-.296875.78125-.421875 1.171875-.078125.1875-.171875.40625-.1875.609375l-2.765625-7.4375zm0 0"/></symbol><symbol id="l" overflow="visible"><path d="m.703125-2.734375c.421875-.265625.796875-.421875 1.296875-.421875s.703125.484375.703125.921875v.265625c-.859375 0-2.34375.1875-2.34375 1.015625 0 .53125.390625 1.03125.96875 1.03125.484375 0 .984375-.109375 1.390625-.390625v.296875h.671875v-2.21875c0-.640625-.359375-1.375-1.28125-1.4375h-.09375c-.421875 0-.8125.09375-1.203125.265625-.0625.03125-.15625.0625-.15625.140625 0 .171875.03125.359375.046875.53125zm2 1.203125v.359375c0 .453125-.34375.71875-.921875.71875-.28125 0-.78125-.109375-.78125-.5s.6875-.46875.953125-.515625c.25-.03125.5-.046875.75-.0625zm0 0"/></symbol><symbol id="m" overflow="visible"><path d="m1.296875-3.03125v-.578125h-.640625v3.59375h.703125v-1.796875c0-.5.09375-1.28125.828125-1.28125.46875 0 .828125.203125.828125.828125 0 .109375-.015625.21875-.015625.3125v1.9375h.703125v-1.859375c0-.140625 0-.28125 0-.421875 0-.640625-.171875-1.328125-1.171875-1.328125-.5 0-.875.203125-1.234375.59375zm0 0"/></symbol><symbol id="n" overflow="visible"><path d="m.671875-3.546875v3.53125h.671875v-3.53125zm-.078125-1.921875v.796875h.8125v-.796875zm0 0"/></symbol><symbol id="o" overflow="visible"><path d="m1.3125-3.015625v-.59375h-.65625v3.59375h.703125v-1.796875c0-.484375.109375-1.28125.828125-1.28125.484375 0 .828125.203125.828125.828125v.3125 1.9375h.6875v-1.796875c0-.484375.109375-1.28125.828125-1.28125.484375 0 .84375.203125.84375.828125 0 .109375-.015625.21875-.015625.3125v1.9375h.703125v-1.875c0-.140625 0-.265625 0-.40625 0-.328125-.03125-.6875-.234375-.953125-.203125-.28125-.59375-.375-.9375-.375-.53125 0-.984375.25-1.265625.640625-.1875-.484375-.609375-.640625-1.0625-.640625-.4375 0-1.03125.203125-1.25.609375zm0 0"/></symbol><symbol id="p" overflow="visible"><path d="m.875-4.5625v1.015625h-.71875v.5h.703125v1.96875c0 .4375.03125 1.15625.703125 1.15625.453125 0 .859375-.125 1.265625-.296875l-.140625-.515625c-.265625.15625-.484375.25-.78125.25-.390625 0-.421875-.46875-.421875-.734375v-1.828125h1.1875v-.5h-1.1875v-1.015625zm0 0"/></symbol><symbol id="q" overflow="visible"><path d="m1.984375-3.671875c-.96875.109375-1.75.890625-1.75 1.90625 0 .9375.75 1.84375 1.90625 1.84375.96875 0 1.84375-.796875 1.84375-1.828125 0-.984375-.78125-1.921875-1.875-1.921875-.046875 0-.078125 0-.125 0zm-1.046875 1.953125c-.015625-.046875-.015625-.09375-.015625-.140625 0-.671875.46875-1.28125 1.1875-1.28125.734375 0 1.1875.59375 1.1875 1.296875 0 .71875-.4375 1.359375-1.1875 1.359375-.65625 0-1.09375-.5-1.171875-1.234375zm0 0"/></symbol><symbol id="r" overflow="visible"><path d="m.84375-3.546875h-.625v.5h.625v3.03125h.65625v-3.03125h.921875v-.5h-.9375v-.8125c0-.078125-.015625-.140625-.015625-.21875 0-.46875.421875-.65625.796875-.65625.25 0 .453125.0625.671875.140625v-.59375c-.21875-.046875-.421875-.078125-.65625-.078125-.515625 0-1.15625.265625-1.375.953125-.0625.21875-.0625.453125-.0625.671875zm0 0"/></symbol><symbol id="s" overflow="visible"><path d="m1.28125-2.875v-.734375h-.609375v3.59375h.671875v-1.59375c0-.8125.53125-1.421875 1.421875-1.421875v-.59375c-.609375 0-1.0625.28125-1.484375.75zm0 0"/></symbol><symbol id="t" overflow="visible"><path d="m3.421875-.875c-.0625.03125-.125.09375-.1875.125-.3125.171875-.6875.296875-1.0625.296875-.59375 0-1.28125-.453125-1.28125-1.296875h2.609375c0-.8125-.28125-1.921875-1.5-1.921875-1.03125 0-1.71875.9375-1.71875 1.90625v.03125c.015625 1 .859375 1.8125 1.859375 1.8125.4375 0 .859375-.125 1.21875-.3125.0625-.03125.109375-.0625.109375-.125 0-.171875-.03125-.34375-.046875-.515625zm-2.46875-1.359375c.140625-.453125.5-.90625 1.0625-.90625.265625 0 .5625.125.734375.328125.15625.171875.21875.375.265625.578125zm0 0"/></symbol><symbol id="u" overflow="visible"><path d="m.328125-.890625c-.015625.1875-.09375.390625-.09375.5625 0 .203125.890625.359375 1 .375.15625.03125.3125.03125.46875.03125.5625 0 1.34375-.234375 1.34375-1.078125 0-.671875-.546875-1.078125-1.1875-1.171875-.3125-.046875-.953125-.09375-.953125-.53125 0-.34375.390625-.453125.65625-.453125.46875 0 .796875.109375 1.25.3125l.09375-.578125c-.40625-.15625-.796875-.25-1.234375-.25-.625 0-1.390625.25-1.390625 1.0625 0 .75.703125.96875 1.28125 1.09375.3125.0625.859375.109375.859375.546875 0 .40625-.46875.5-.78125.5-.484375 0-.875-.171875-1.3125-.421875zm0 0"/></symbol><symbol id="v" overflow="visible"><path d="m.84375-3.546875h-.625v.5h.625v3.03125h.65625v-3.03125h.984375v-.5h-1v-1.015625c0-.28125.09375-.671875.484375-.671875.140625 0 .25.03125.375.078125.0625.03125.09375.0625.140625.078125v-.515625c0-.15625-.3125-.171875-.453125-.171875h-.0625c-.59375 0-1.015625.546875-1.109375 1.125-.015625.15625-.015625.328125-.015625.484375zm2.34375 0v3.53125h.671875v-3.53125zm-.03125-2.140625v.71875h.71875v-.71875zm0 0"/></symbol><symbol id="w" overflow="visible"><path d="m3.015625-5.6875v2.484375c-.390625-.25-.78125-.421875-1.265625-.421875-.921875 0-1.46875.953125-1.46875 1.84375 0 .75.453125 1.859375 1.390625 1.859375.484375 0 .96875-.171875 1.328125-.515625v.421875h.6875v-5.671875zm-2.03125 4.03125c0-.046875-.015625-.078125-.015625-.125 0-.640625.390625-1.3125 1.21875-1.3125.28125 0 .546875.109375.75.34375.03125.03125.046875.0625.0625.09375v1.578125c0 .390625-.640625.625-.890625.625-.703125 0-1.0625-.578125-1.125-1.203125zm0 0"/></symbol><symbol id="x" overflow="visible"><path d="m7.875-2.75c.203125 0 .421875 0 .421875-.234375 0-.25-.21875-.25-.421875-.25h-6.46875c-.203125 0-.421875 0-.421875.25 0 .234375.21875.234375.421875.234375zm0 0"/></symbol><symbol id="y" overflow="visible"><path d="m9.96875-2.75c-.65625.5-.984375 1-1.078125 1.140625-.53125.828125-.625 1.578125-.625 1.59375 0 .140625.140625.140625.234375.140625.203125 0 .21875-.015625.265625-.234375.265625-1.171875.96875-2.171875 2.328125-2.71875.140625-.046875.171875-.078125.171875-.15625 0-.09375-.0625-.125-.09375-.140625-.515625-.203125-1.96875-.796875-2.421875-2.796875-.03125-.15625-.046875-.1875-.25-.1875-.09375 0-.234375 0-.234375.140625 0 .03125.09375.78125.609375 1.578125.234375.359375.578125.78125 1.09375 1.15625h-8.875c-.21875 0-.4375 0-.4375.25 0 .234375.21875.234375.4375.234375zm0 0"/></symbol><symbol id="z" overflow="visible"><path d="m5.703125-4.109375c.09375-.046875.171875-.09375.171875-.203125s-.078125-.1875-.1875-.1875c-.015625 0-.03125 0-.140625.0625l-4.671875 2.25c-.109375.046875-.171875.09375-.171875.203125 0 .09375.0625.140625.171875.1875l4.671875 2.25c.109375.0625.125.0625.140625.0625.109375 0 .1875-.078125.1875-.1875s-.078125-.15625-.171875-.203125l-4.390625-2.109375zm0 0"/></symbol><symbol id="A" overflow="visible"><path d="m5.703125-1.796875c.09375-.046875.171875-.09375.171875-.1875 0-.109375-.078125-.15625-.171875-.203125l-4.671875-2.25c-.109375-.0625-.125-.0625-.140625-.0625-.109375 0-.1875.078125-.1875.1875s.0625.15625.171875.203125l4.390625 2.125-4.390625 2.109375c-.109375.046875-.171875.09375-.171875.203125s.078125.1875.1875.1875c.015625 0 .03125 0 .140625-.0625zm0 0"/></symbol><symbol id="B" overflow="visible"><path d="m3.703125-2.40625c0-.171875 0-1.0625-.71875-1.0625-.265625 0-.578125.109375-.796875.390625-.140625-.296875-.375-.390625-.609375-.390625-.15625 0-.421875.046875-.671875.25-.046875-.21875-.234375-.21875-.34375-.21875h-.265625c-.109375 0-.34375 0-.34375.265625s.203125.265625.453125.265625v2.375c-.25 0-.453125 0-.453125.265625s.234375.265625.34375.265625h.703125c.125 0 .34375 0 .34375-.265625s-.1875-.265625-.4375-.265625v-1.390625c0-.65625.34375-1.03125.65625-1.03125.171875 0 .25.1875.25.59375v1.828125c-.078125 0-.3125 0-.3125.265625s.21875.265625.34375.265625h.5625c.125 0 .34375 0 .34375-.265625s-.1875-.265625-.453125-.265625v-1.390625c0-.65625.34375-1.03125.671875-1.03125.15625 0 .25.1875.25.59375v1.828125c-.09375 0-.3125 0-.3125.265625s.21875.265625.34375.265625h.5625c.109375 0 .34375 0 .34375-.265625s-.203125-.265625-.453125-.265625zm0 0"/></symbol><symbol id="C" overflow="visible"><path d="m3.4375-2.25c0-.65625-.515625-1.25-1.609375-1.25-.375 0-1.203125 0-1.203125.609375 0 .21875.15625.390625.390625.390625.15625 0 .375-.09375.390625-.375 0-.0625 0-.078125.109375-.09375h.3125c.65625 0 1 .296875 1 .734375-.859375 0-2.40625.1875-2.40625 1.171875 0 .59375.546875 1.109375 1.359375 1.109375.640625 0 1.03125-.25 1.140625-.3125.15625.234375.5.265625.875.265625.21875 0 .421875 0 .421875-.265625s-.21875-.265625-.328125-.265625c-.3125 0-.375-.015625-.453125-.046875zm-.609375 1.109375c0 .171875 0 .359375-.3125.5-.28125.140625-.59375.15625-.6875.15625-.46875 0-.796875-.28125-.796875-.578125 0-.421875.875-.65625 1.796875-.671875zm0 0"/></symbol><symbol id="D" overflow="visible"><path d="m1.15625-1.09375c.140625.078125.390625.1875.71875.1875.765625 0 1.359375-.59375 1.359375-1.28125 0-.28125-.109375-.53125-.203125-.6875.171875-.078125.25-.09375.390625-.109375.046875.203125.1875.28125.34375.28125.1875 0 .34375-.15625.34375-.34375 0-.25-.203125-.46875-.609375-.46875-.21875 0-.5625.0625-.84375.265625-.0625-.046875-.375-.21875-.78125-.21875-.765625 0-1.359375.578125-1.359375 1.28125 0 .25.09375.53125.25.734375-.0625.109375-.15625.328125-.15625.546875 0 .234375.09375.453125.203125.578125-.34375.1875-.578125.578125-.578125.96875 0 .703125.859375 1.171875 1.875 1.171875s1.875-.46875 1.875-1.171875-.609375-1.109375-1.453125-1.140625c-.25-.015625-.828125 0-1.0625-.03125-.359375 0-.359375-.375-.359375-.375 0-.09375.03125-.15625.046875-.1875zm.71875-.328125c-.40625 0-.75-.34375-.75-.765625 0-.4375.34375-.765625.75-.765625s.75.34375.75.765625c0 .40625-.328125.765625-.75.765625zm.015625 1.40625c.703125 0 1.59375 0 1.59375.65625 0 .328125-.578125.65625-1.375.65625s-1.375-.34375-1.375-.65625.296875-.640625.71875-.65625zm0 0"/></symbol><symbol id="E" overflow="visible"><path d="m2.515625-4.453125c0-.234375-.1875-.421875-.421875-.421875-.25 0-.4375.1875-.4375.421875 0 .25.1875.4375.4375.4375.234375 0 .421875-.1875.421875-.4375zm-1.46875 1.015625c-.125 0-.359375 0-.359375.265625s.25.265625.359375.265625h.859375v2.375h-.921875c-.125 0-.359375 0-.359375.265625s.25.265625.359375.265625h2.34375c.109375 0 .34375 0 .34375-.265625s-.234375-.265625-.34375-.265625h-.8125v-2.5625c0-.265625-.078125-.34375-.34375-.34375zm0 0"/></symbol><symbol id="F" overflow="visible"><path d="m3.75-.859375c0-.171875-.140625-.25-.3125-.25-.109375 0-.21875 0-.296875.1875-.140625.34375-.453125.4375-.734375.4375-.671875 0-1.234375-.546875-1.234375-1.234375 0-.40625.265625-1.25 1.28125-1.25.21875 0 .359375.015625.40625.015625.015625.015625.03125.015625.03125.09375.015625.234375.171875.359375.375.359375.234375 0 .390625-.171875.390625-.390625 0-.609375-.828125-.609375-1.1875-.609375-1.421875 0-1.890625 1.09375-1.890625 1.78125 0 .953125.765625 1.765625 1.78125 1.765625 1.125 0 1.390625-.765625 1.390625-.90625zm0 0"/></symbol><symbol id="G" overflow="visible"><path d="m2.359375-2-.015625-.015625.96875-.890625h.25c.140625 0 .34375 0 .34375-.265625s-.203125-.265625-.34375-.265625h-1.21875c-.125 0-.328125 0-.328125.265625s.203125.265625.328125.265625h.234375l-1.21875 1.125v-2.75c0-.265625-.078125-.34375-.34375-.34375h-.5c-.125 0-.359375 0-.359375.265625s.234375.265625.359375.265625h.359375v3.8125h-.359375c-.125 0-.359375 0-.359375.265625s.234375.265625.359375.265625h1.203125c.125 0 .359375 0 .359375-.265625s-.25-.265625-.359375-.265625h-.359375v-.578125l.625-.578125.90625 1.15625c-.21875 0-.421875 0-.421875.265625s.234375.265625.34375.265625h.9375c.125 0 .34375 0 .34375-.265625s-.21875-.265625-.34375-.265625h-.234375zm0 0"/></symbol><symbol id="H" overflow="visible"><path d="m3.46875-4.53125c0-.265625-.078125-.34375-.34375-.34375h-.59375c-.125 0-.34375 0-.34375.265625s.21875.265625.34375.265625h.328125v1.203125c-.359375-.296875-.703125-.328125-.921875-.328125-.875 0-1.671875.75-1.671875 1.75 0 .984375.734375 1.765625 1.609375 1.765625.421875 0 .75-.203125.984375-.421875 0 .21875 0 .375.34375.375h.59375c.125 0 .34375 0 .34375-.265625s-.21875-.265625-.34375-.265625h-.328125zm-.609375 2.96875c0 .453125-.359375 1.078125-.96875 1.078125-.53125 0-1.015625-.53125-1.015625-1.234375s.53125-1.234375 1.109375-1.234375c.46875 0 .875.40625.875.84375zm0 0"/></symbol><symbol id="I" overflow="visible"><path d="m1.8125-2.90625h1.28125c.125 0 .34375 0 .34375-.265625s-.21875-.265625-.34375-.265625h-1.28125v-.640625c0-.140625 0-.34375-.296875-.34375s-.296875.203125-.296875.34375v.640625h-.671875c-.109375 0-.34375 0-.34375.265625s.21875.265625.34375.265625h.671875v1.8125c0 .859375.59375 1.140625 1.15625 1.140625.71875 0 1.25-.515625 1.25-1.078125 0-.28125-.234375-.28125-.3125-.28125-.203125 0-.296875.078125-.296875.28125-.015625.328125-.3125.546875-.609375.546875-.59375 0-.59375-.4375-.59375-.625zm0 0"/></symbol><symbol id="J" overflow="visible"><path d="m1.796875-1.453125c0-.875.625-1.5 1.40625-1.5.015625.3125.234375.375.359375.375.203125 0 .359375-.140625.359375-.375 0-.1875-.140625-.515625-.765625-.515625-.71875 0-1.15625.421875-1.359375.609375v-.234375c0-.265625-.078125-.34375-.34375-.34375h-.859375c-.109375 0-.359375 0-.359375.265625s.25.265625.359375.265625h.59375v2.375h-.59375c-.109375 0-.359375 0-.359375.265625s.25.265625.359375.265625h2.046875c.125 0 .34375 0 .34375-.265625s-.21875-.265625-.34375-.265625h-.84375zm0 0"/></symbol><symbol id="K" overflow="visible"><path d="m3.40625-1.5c.140625 0 .34375 0 .34375-.296875 0-.953125-.546875-1.703125-1.578125-1.703125-.984375 0-1.75.796875-1.75 1.765625 0 .953125.796875 1.78125 1.875 1.78125 1.09375 0 1.453125-.703125 1.453125-.90625 0-.171875-.140625-.25-.3125-.25-.125 0-.203125.015625-.296875.1875-.15625.359375-.546875.4375-.796875.4375-.578125 0-1.171875-.390625-1.296875-1.015625zm-2.34375-.515625c.109375-.5625.59375-.953125 1.109375-.953125.71875 0 .90625.546875.953125.953125zm0 0"/></symbol><symbol id="L" overflow="visible"><path d="m2.421875-4.53125c0-.265625-.09375-.34375-.34375-.34375h-1.265625c-.125 0-.34375 0-.34375.265625s.234375.265625.34375.265625h1v3.8125h-1c-.125 0-.34375 0-.34375.265625s.234375.265625.34375.265625h2.59375c.125 0 .359375 0 .359375-.265625s-.25-.265625-.359375-.265625h-.984375zm0 0"/></symbol><symbol id="M" overflow="visible"><path d="m3.46875-2.3125c0-.796875-.40625-1.15625-1.046875-1.15625-.59375 0-.984375.3125-1.0625.390625 0-.234375-.015625-.359375-.34375-.359375h-.578125c-.140625 0-.34375 0-.34375.265625s.203125.265625.34375.265625h.3125v2.375h-.3125c-.140625 0-.34375 0-.34375.265625s.203125.265625.34375.265625h1.25c.125 0 .34375 0 .34375-.265625s-.21875-.265625-.34375-.265625h-.328125v-1.359375c0-.765625.609375-1.0625 1.015625-1.0625.359375 0 .484375.1875.484375.65625v1.765625h-.265625c-.109375 0-.34375 0-.34375.265625s.234375.265625.34375.265625h1.203125c.125 0 .34375 0 .34375-.265625s-.21875-.265625-.34375-.265625h-.328125zm0 0"/></symbol><symbol id="N" overflow="visible"><path d="m1.921875-4.109375h-.59375l-.140625.609375h.609375zm-1.421875 4.109375h.5l.5625-2.65625h-.5zm0 0"/></symbol><symbol id="O" overflow="visible"><path d="m2.734375-2.5625c-.3125-.125-.53125-.1875-.890625-.1875-1.234375 0-1.234375.9375-1.234375.9375 0 .53125.546875.625.84375.6875.265625.046875.53125.109375.53125.34375 0 0 0 .4375-.65625.4375-.359375 0-.6875-.109375-.921875-.3125l-.15625.375s-.015625.046875-.015625.0625c0 .03125.40625.28125 1 .28125.125 0 .5625 0 .875-.265625.28125-.234375.359375-.5625.359375-.71875 0-.234375-.109375-.40625-.265625-.53125-.15625-.109375-.265625-.125-.71875-.21875-.125-.03125-.390625-.078125-.390625-.296875 0-.015625 0-.390625.609375-.390625.328125 0 .578125.0625.859375.21875zm0 0"/></symbol><symbol id="P" overflow="visible"><path d="m2.921875-1.3125c.046875-.21875.046875-.40625.046875-.5 0-.328125-.09375-.546875-.234375-.6875-.203125-.203125-.453125-.25-.65625-.25-.84375 0-1.625.875-1.625 1.703125 0 .578125.40625 1.109375 1.125 1.109375.5625 0 1.0625-.265625 1.078125-.296875.015625-.046875.046875-.359375.046875-.421875-.3125.203125-.703125.328125-1.03125.328125-.5 0-.75-.390625-.75-.78125 0-.09375 0-.09375.03125-.203125zm-1.859375-.359375c.28125-.515625.671875-.6875.9375-.6875.625 0 .625.59375.625.6875zm0 0"/></symbol><symbol id="Q" overflow="visible"><path d="m1.953125-1.375 1.4375-1.28125h-.53125l-1.0625.984375-.65625-.984375h-.546875l.921875 1.28125-1.515625 1.375h.53125l1.15625-1.125.703125 1.125h.53125zm0 0"/></symbol><symbol id="R" overflow="visible"><path d="m2.734375-.65625c-.3125.1875-.65625.296875-1.046875.296875-.5625 0-.703125-.421875-.703125-.71875 0-.46875.34375-1.25 1.140625-1.25.375 0 .5625.0625.84375.265625l.171875-.421875c-.296875-.1875-.484375-.265625-.921875-.265625-1.03125 0-1.75.9375-1.75 1.703125 0 .625.421875 1.109375 1.125 1.109375.53125 0 .953125-.203125 1.09375-.28125zm0 0"/></symbol><symbol id="S" overflow="visible"><path d="m3.34375-2.65625h-.515625l-.375 1.796875c-.0625.25-.359375.5625-.890625.5625-.296875 0-.421875-.046875-.421875-.21875 0-.046875.015625-.125.015625-.125l.421875-2.015625h-.515625l-.453125 2.265625c0 .359375.234375.453125.53125.453125s.796875-.078125 1.1875-.328125l-.046875.265625h.5zm0 0"/></symbol><symbol id="T" overflow="visible"><path d="m1.609375-2.28125h.890625l.078125-.375h-.890625l.15625-.765625h-.453125l-.15625.765625h-.546875l-.078125.375h.515625l-.3125 1.453125c-.015625.09375-.046875.265625-.046875.40625 0 .28125.109375.484375.40625.484375.265625 0 .578125-.0625.984375-.21875l-.03125-.375c-.1875.09375-.390625.171875-.609375.171875-.140625 0-.234375-.0625-.234375-.28125 0-.078125.015625-.15625.015625-.15625zm0 0"/></symbol><symbol id="U" overflow="visible"><path d="m3.65625-4.15625h-.5l-.375 1.75c-.265625-.234375-.609375-.3125-.890625-.3125-.75 0-1.4375.890625-1.4375 1.765625 0 .5.265625 1.015625.84375 1.015625.203125 0 .578125-.046875 1.015625-.375l-.0625.3125h.515625zm-1.234375 3.328125c-.015625.09375-.015625.109375-.09375.171875-.09375.09375-.3125.328125-.671875.328125-.125 0-.671875-.03125-.671875-.703125 0-.703125.5-1.296875 1.15625-1.296875.390625 0 .53125.28125.53125.328125 0 .03125 0 .046875-.015625.078125zm0 0"/></symbol><symbol id="V" overflow="visible"><path d="m2.921875-1.765625c.015625-.046875.015625-.078125.015625-.1875 0-.390625-.265625-.796875-.859375-.796875-.375 0-.671875.078125-1.0625.265625l-.046875.4375c.3125-.203125.640625-.3125 1.03125-.3125.296875 0 .421875.21875.421875.453125 0 .0625 0 .0625-.078125.421875-.421875.015625-1.9375.078125-1.9375.953125 0 .171875.078125.59375.578125.59375.125 0 .65625-.015625 1.109375-.296875l-.046875.234375h.5zm-.65625.625c-.078125.421875-.09375.5-.234375.609375-.171875.140625-.453125.203125-.625.203125-.28125 0-.515625-.109375-.515625-.328125s.203125-.3125.578125-.40625c.328125-.0625.65625-.078125.796875-.078125zm0 0"/></symbol><symbol id="W" overflow="visible"><path d="m3.171875-1.796875c.015625-.09375.03125-.15625.03125-.3125 0-.515625-.390625-.609375-.71875-.609375-.34375 0-.703125.140625-1.03125.453125l.09375-.4375h-.46875l-.578125 2.703125h.515625l.265625-1.25c.078125-.359375.125-.546875.3125-.796875.15625-.1875.328125-.28125.546875-.28125.3125 0 .515625.109375.515625.390625 0 .09375 0 .109375-.015625.140625l-.375 1.796875h.515625zm0 0"/></symbol><symbol id="X" overflow="visible"><path d="m4.9375-1.796875c.015625-.09375.03125-.15625.03125-.3125 0-.515625-.390625-.609375-.71875-.609375-.46875 0-.828125.25-1.0625.484375-.046875-.328125-.265625-.484375-.703125-.484375-.34375 0-.703125.140625-1.03125.453125l.09375-.4375h-.46875l-.578125 2.703125h.515625l.265625-1.25c.078125-.359375.125-.546875.3125-.796875.15625-.1875.328125-.28125.546875-.28125.3125 0 .515625.109375.515625.390625 0 .09375 0 .109375-.015625.140625l-.375 1.796875h.515625l.265625-1.25c.078125-.359375.125-.546875.3125-.796875.15625-.1875.328125-.28125.546875-.28125.3125 0 .515625.109375.515625.390625 0 .09375 0 .109375-.015625.140625l-.375 1.796875h.515625zm0 0"/></symbol><symbol id="Y" overflow="visible"><path d="m.515625-.875-.234375.59375c.421875.21875.859375.359375 1.34375.359375.828125 0 1.671875-.421875 1.671875-1.34375 0-.421875-.34375-.71875-.734375-.84375-.125-.046875-.28125-.0625-.421875-.09375-.234375-.046875-.671875-.09375-.671875-.421875 0-.40625.46875-.53125.78125-.53125.421875 0 .75.09375 1.15625.3125l.234375-.578125c-.375-.15625-.734375-.25-1.15625-.25-.53125 0-1.078125.109375-1.453125.59375-.125.1875-.21875.421875-.21875.65625 0 .625.625.828125 1.09375.90625.265625.046875.734375.09375.734375.46875 0 .4375-.53125.578125-.890625.578125-.375 0-.765625-.109375-1.078125-.3125-.046875-.03125-.09375-.078125-.15625-.09375zm0 0"/></symbol><symbol id="Z" overflow="visible"><path d="m.875-3.546875.6875 3.53125h.671875l.078125-.015625 2.203125-3.515625h-.625l-1.421875 2.3125-.28125.5-.125.265625c0-.375-.09375-.765625-.15625-1.15625-.109375-.640625-.234375-1.28125-.375-1.921875zm0 0"/></symbol><symbol id="aa" overflow="visible"><path d="m.828125-.265625c-.328125.140625-.734375.515625-.734375.9375 0 .734375 1.09375.953125 1.671875.953125.84375 0 2.125-.34375 2.125-1.296875 0-.84375-.9375-.90625-1.609375-.90625h-.734375c-.1875 0-.3125-.140625-.3125-.3125 0-.140625.0625-.25.140625-.359375.171875.171875.46875.234375.734375.234375.828125 0 1.65625-.734375 1.65625-1.578125 0-.171875-.046875-.34375-.125-.5l.40625-.015625.703125.03125.03125-.546875c-.46875 0-.921875.09375-1.359375.234375l.03125.0625c-.21875-.203125-.515625-.296875-.8125-.296875-.828125 0-1.65625.71875-1.65625 1.5625 0 .15625.03125.296875.078125.421875.015625.03125.046875.078125.046875.109375-.046875.078125-.15625.1875-.21875.28125-.109375.1875-.171875.375-.171875.59375 0 .125.03125.265625.109375.390625zm.5.3125h.9375c.390625 0 1.015625.015625 1.015625.421875 0 .65625-1.34375.65625-1.4375.65625-.375 0-.859375-.0625-1.09375-.359375-.03125-.046875-.046875-.09375-.046875-.140625 0-.3125.34375-.546875.625-.578125zm1.140625-3.171875h.0625c.4375 0 .609375.25.609375.578125 0 .515625-.296875.9375-.859375 1.03125h-.0625c-.453125 0-.609375-.265625-.609375-.578125 0-.515625.296875-.9375.859375-1.03125zm0 0"/></symbol><symbol id="ab" overflow="visible"><path d="m1.28125-2.734375c.484375-.265625.84375-.421875 1.390625-.421875.328125 0 .546875.296875.546875.59375 0 .203125-.078125.375-.09375.59375-1.015625 0-2.59375.21875-2.59375 1.25 0 .40625.25.796875.78125.796875.484375 0 1.046875-.125 1.46875-.390625l-.0625.296875h.609375c.09375 0 .09375-.140625.109375-.234375.046875-.203125.09375-.40625.140625-.625l.21875-1.015625c.046875-.21875.109375-.4375.125-.65625v-.046875c0-.296875-.109375-.59375-.359375-.8125-.234375-.203125-.53125-.265625-.828125-.265625-.421875 0-.84375.109375-1.234375.28125-.203125.078125-.203125.40625-.21875.65625zm1.734375 1.203125c-.046875.625-.34375 1.078125-1.15625 1.078125-.21875 0-.671875-.078125-.671875-.421875 0-.4375.703125-.53125 1.03125-.59375.265625-.03125.53125-.046875.796875-.0625zm0 0"/></symbol><symbol id="ac" overflow="visible"><path d="m1.9375-3.03125.125-.578125h-.5625c-.125 0-.109375.203125-.140625.296875-.21875 1.109375-.46875 2.203125-.703125 3.296875h.609375c.15625 0 .171875-.421875.21875-.609375.078125-.359375.15625-.703125.234375-1.046875.125-.609375.375-1.421875 1.125-1.421875.3125 0 .6875.078125.6875.515625 0 .140625-.03125.28125-.0625.40625l-.1875.875c-.09375.4375-.1875.859375-.265625 1.28125h.609375c.140625 0 .171875-.421875.21875-.609375.0625-.359375.140625-.703125.21875-1.046875.125-.609375.375-1.421875 1.140625-1.421875.296875 0 .6875.078125.6875.515625 0 .140625-.046875.28125-.0625.40625l-.1875.875c-.109375.4375-.1875.859375-.28125 1.28125h.625c.125 0 .25-.828125.328125-1.234375l.109375-.421875c.078125-.375.1875-.75.1875-1.140625 0-.4375-.1875-.8125-.953125-.8125-.5625 0-1.03125.265625-1.40625.640625-.046875-.46875-.515625-.640625-.9375-.640625-.5 0-1.015625.234375-1.375.59375zm0 0"/></symbol><symbol id="ad" overflow="visible"><path d="m3.65625-.875c-.421875.25-.890625.40625-1.40625.40625-.75 0-.9375-.5625-.9375-.953125 0-.640625.46875-1.6875 1.515625-1.6875.5 0 .75.09375 1.125.375l.21875-.578125c-.390625-.234375-.640625-.34375-1.21875-.34375-1.375 0-2.328125 1.234375-2.328125 2.265625 0 .828125.5625 1.46875 1.5 1.46875.703125 0 1.265625-.265625 1.453125-.359375zm0 0"/></symbol><symbol id="ae" overflow="visible"><path d="m4.40625-2.140625c0-.890625-.640625-1.515625-1.515625-1.515625-1.21875 0-2.3125 1.15625-2.3125 2.28125 0 .859375.640625 1.453125 1.515625 1.453125 1.171875 0 2.3125-1.03125 2.3125-2.21875zm-2.1875 1.671875c-.53125 0-.9375-.34375-.9375-.96875 0-.875.609375-1.6875 1.484375-1.6875.4375 0 .953125.203125.953125.9375 0 .78125-.578125 1.71875-1.5 1.71875zm0 0"/></symbol><symbol id="af" overflow="visible"><path d="m6.5625-2.375c.03125-.140625.046875-.234375.046875-.4375 0-.671875-.515625-.8125-.953125-.8125-.609375 0-1.109375.34375-1.40625.65625-.0625-.4375-.359375-.65625-.9375-.65625-.453125 0-.9375.1875-1.375.609375l.125-.578125h-.640625l-.765625 3.59375h.703125l.34375-1.65625c.109375-.5.15625-.75.421875-1.0625.203125-.25.4375-.375.734375-.375.40625 0 .671875.140625.671875.515625 0 .125 0 .140625-.015625.203125l-.5 2.375h.6875l.359375-1.65625c.109375-.5.15625-.75.421875-1.0625.1875-.25.4375-.375.71875-.375.40625 0 .6875.140625.6875.515625 0 .125-.015625.140625-.015625.203125l-.515625 2.375h.703125zm0 0"/></symbol><symbol id="ag" overflow="visible"><path d="m2.515625-5.53125h-.65625l-1.1875 5.53125h.703125l.078125-.375c.359375.390625.796875.453125 1.046875.453125 1.015625 0 2.015625-1.109375 2.015625-2.375 0-.5625-.25-1.328125-1.015625-1.328125-.328125 0-.875.078125-1.46875.453125zm-.609375 3c.03125-.125.046875-.140625.140625-.21875.078125-.078125.421875-.34375.859375-.34375s.90625.234375.90625.921875c0 .890625-.640625 1.71875-1.546875 1.71875-.3125 0-.5625-.140625-.703125-.5zm0 0"/></symbol><symbol id="ah" overflow="visible"><path d="m2.5625-5.46875h-.796875l-.1875.8125h.8125zm-1.890625 5.46875h.671875l.75-3.53125h-.671875zm0 0"/></symbol><symbol id="ai" overflow="visible"><path d="m4.21875-2.375c.03125-.140625.046875-.234375.046875-.4375 0-.671875-.515625-.8125-.953125-.8125-.453125 0-.9375.1875-1.375.609375l.125-.578125h-.640625l-.765625 3.59375h.703125l.34375-1.65625c.109375-.5.15625-.75.421875-1.0625.203125-.25.4375-.375.734375-.375.40625 0 .671875.140625.671875.515625 0 .125 0 .140625-.015625.203125l-.5 2.375h.6875zm0 0"/></symbol><symbol id="aj" overflow="visible"><path d="m3.875-1.75c.0625-.296875.078125-.53125.078125-.65625 0-.453125-.125-.734375-.296875-.921875-.28125-.28125-.625-.328125-.890625-.328125-1.125 0-2.15625 1.15625-2.15625 2.265625 0 .765625.53125 1.46875 1.5 1.46875.75 0 1.40625-.359375 1.421875-.390625.015625-.046875.078125-.46875.078125-.5625-.421875.265625-.953125.421875-1.375.421875-.671875 0-1-.5-1-1.03125 0-.109375 0-.125.03125-.265625zm-2.453125-.46875c.359375-.703125.890625-.90625 1.25-.90625.8125 0 .8125.765625.8125.90625zm0 0"/></symbol><symbol id="ak" overflow="visible"><path d="m4.875-5.53125h-.671875l-.5 2.328125c-.34375-.296875-.8125-.421875-1.171875-.421875-1.015625 0-1.921875 1.1875-1.921875 2.34375 0 .671875.34375 1.359375 1.109375 1.359375.265625 0 .78125-.0625 1.359375-.5l-.078125.421875h.6875zm-1.640625 4.421875c-.03125.125-.03125.140625-.140625.234375-.109375.125-.421875.421875-.890625.421875-.15625 0-.890625-.03125-.890625-.921875 0-.9375.65625-1.71875 1.546875-1.71875.5 0 .703125.375.703125.4375 0 .03125-.015625.0625-.015625.09375zm0 0"/></symbol><path d="m-.00003125.0011875h24.40625025" fill="none" stroke="#000" stroke-miterlimit="10" stroke-width=".398" transform="matrix(1 0 0 -1 15.418 10.259)"/><path d="m-.0008125-.001625v26.183594" fill="none" stroke="#000" stroke-miterlimit="10" stroke-width=".398" transform="matrix(1 0 0 -1 15.618 36.639)"/><use x="18.806" xlink:href="#a" y="21.747"/><use x="26.607964" xlink:href="#b" y="21.747"/><use x="29.789242" xlink:href="#c" y="21.747"/><use x="20.518" xlink:href="#d" y="32.455"/><use x="26.77057" xlink:href="#e" y="32.455"/><use x="29.523852" xlink:href="#f" y="32.455"/><path d="m0-.001625v26.183594" fill="none" stroke="#000" stroke-miterlimit="10" stroke-width=".398" transform="matrix(1 0 0 -1 39.625 36.639)"/><path d="m-.00003125-.00184375h24.40625025" fill="none" stroke="#000" stroke-miterlimit="10" stroke-width=".398" transform="matrix(1 0 0 -1 15.418 36.838)"/><use x="10.156" xlink:href="#l" y="44.47"/><use x="14.223142" xlink:href="#m" y="44.47"/><use x="18.594742" xlink:href="#n" y="44.47"/><use x="20.614365" xlink:href="#o" y="44.47"/><use x="27.337145" xlink:href="#l" y="44.47"/><use x="31.404287" xlink:href="#p" y="44.47"/><use x="34.461617" xlink:href="#n" y="44.47"/><use x="36.48124" xlink:href="#q" y="44.47"/><use x="40.71416" xlink:href="#m" y="44.47"/><use x="45.086" xlink:href="#x" y="21.747"/><use x="51.43182" xlink:href="#x" y="21.747"/><use x="58.07652" xlink:href="#x" y="21.747"/><use x="64.72122" xlink:href="#x" y="21.747"/><use x="71.365921" xlink:href="#x" y="21.747"/><use x="78.010621" xlink:href="#x" y="21.747"/><use x="84.643366" xlink:href="#x" y="21.747"/><use x="91.001141" xlink:href="#y" y="21.747"/><use x="47.674" xlink:href="#z" y="28.92"/><use x="54.26" xlink:href="#B" y="28.92"/><use x="58.494514" xlink:href="#C" y="28.92"/><use x="62.729028" xlink:href="#D" y="28.92"/><use x="66.963542" xlink:href="#E" y="28.92"/><use x="71.198057" xlink:href="#F" y="28.92"/><use x="75.432571" xlink:href="#G" y="28.92"/><use x="79.667085" xlink:href="#F" y="28.92"/><use x="83.901599" xlink:href="#B" y="28.92"/><use x="88.136113" xlink:href="#H" y="28.92"/><use x="92.368" xlink:href="#A" y="28.92"/><use x="56.672" xlink:href="#N" y="36.171"/><use x="58.779104" xlink:href="#O" y="36.171"/><use x="63.371694" xlink:href="#P" y="36.171"/><use x="66.606771" xlink:href="#Q" y="36.171"/><use x="70.083343" xlink:href="#P" y="36.171"/><use x="73.31842" xlink:href="#R" y="36.171"/><use x="76.637184" xlink:href="#S" y="36.171"/><use x="80.161577" xlink:href="#T" y="36.171"/><use x="82.879592" xlink:href="#P" y="36.171"/><use x="86.114669" xlink:href="#U" y="36.171"/><path d="m-.0005625.0011875h31.8125005" fill="none" stroke="#000" stroke-miterlimit="10" stroke-width=".398" transform="matrix(1 0 0 -1 106.274 10.259)"/><path d="m-.00034375-.001625v26.183594" fill="none" stroke="#000" stroke-miterlimit="10" stroke-width=".398" transform="matrix(1 0 0 -1 106.473 36.639)"/><use x="109.661" xlink:href="#g" y="21.747"/><use x="117.103112" xlink:href="#g" y="21.747"/><use x="124.545224" xlink:href="#h" y="21.747"/><use x="112.834" xlink:href="#d" y="32.455"/><use x="119.08657" xlink:href="#e" y="32.455"/><use x="121.839852" xlink:href="#f" y="32.455"/><use x="127.04156" xlink:href="#i" y="32.455"/><path d="m-.00128125-.001625v26.183594" fill="none" stroke="#000" stroke-miterlimit="10" stroke-width=".398" transform="matrix(1 0 0 -1 137.888 36.639)"/><path d="m-.0005625-.00184375h31.8125005" fill="none" stroke="#000" stroke-miterlimit="10" stroke-width=".398" transform="matrix(1 0 0 -1 106.274 36.838)"/><use x="110.543" xlink:href="#r" y="44.702"/><use x="113.130094" xlink:href="#s" y="44.702"/><use x="116.021647" xlink:href="#l" y="44.702"/><use x="120.088789" xlink:href="#o" y="44.702"/><use x="126.811568" xlink:href="#t" y="44.702"/><use x="130.574252" xlink:href="#u" y="44.702"/><use x="141.408" xlink:href="#x" y="21.747"/><use x="147.765775" xlink:href="#x" y="21.747"/><use x="154.39852" xlink:href="#x" y="21.747"/><use x="161.04322" xlink:href="#x" y="21.747"/><use x="167.687921" xlink:href="#x" y="21.747"/><use x="174.332621" xlink:href="#x" y="21.747"/><use x="180.965366" xlink:href="#x" y="21.747"/><use x="187.323141" xlink:href="#y" y="21.747"/><use x="143.996" xlink:href="#z" y="28.92"/><use x="150.582" xlink:href="#I" y="28.92"/><use x="154.816514" xlink:href="#J" y="28.92"/><use x="159.051028" xlink:href="#C" y="28.92"/><use x="163.285542" xlink:href="#F" y="28.92"/><use x="167.520057" xlink:href="#K" y="28.92"/><use x="171.754571" xlink:href="#J" y="28.92"/><use x="175.989085" xlink:href="#F" y="28.92"/><use x="180.223599" xlink:href="#B" y="28.92"/><use x="184.458113" xlink:href="#H" y="28.92"/><use x="188.69" xlink:href="#A" y="28.92"/><use x="152.995" xlink:href="#N" y="34.903"/><use x="155.102104" xlink:href="#O" y="34.903"/><use x="159.688716" xlink:href="#P" y="34.903"/><use x="162.929771" xlink:href="#Q" y="34.903"/><use x="166.406343" xlink:href="#P" y="34.903"/><use x="169.64142" xlink:href="#R" y="34.903"/><use x="172.960184" xlink:href="#S" y="34.903"/><use x="176.484577" xlink:href="#T" y="34.903"/><use x="179.196614" xlink:href="#P" y="34.903"/><use x="182.437669" xlink:href="#U" y="34.903"/><path d="m.00165625.0011875h28.48437475" fill="none" stroke="#000" stroke-miterlimit="10" stroke-width=".398" transform="matrix(1 0 0 -1 202.596 10.259)"/><path d="m.000875-.001625v26.183594" fill="none" stroke="#000" stroke-miterlimit="10" stroke-width=".398" transform="matrix(1 0 0 -1 202.796 36.639)"/><use x="205.984" xlink:href="#j" y="21.747"/><use x="212.485238" xlink:href="#k" y="21.747"/><use x="219.895071" xlink:href="#a" y="21.747"/><use x="207.493" xlink:href="#d" y="32.455"/><use x="213.74557" xlink:href="#e" y="32.455"/><use x="216.498852" xlink:href="#f" y="32.455"/><use x="221.70056" xlink:href="#i" y="32.455"/><path d="m-.0011875-.001625v26.183594" fill="none" stroke="#000" stroke-miterlimit="10" stroke-width=".398" transform="matrix(1 0 0 -1 230.884 36.639)"/><path d="m.00165625-.00184375h28.48437475" fill="none" stroke="#000" stroke-miterlimit="10" stroke-width=".398" transform="matrix(1 0 0 -1 202.596 36.838)"/><use x="234.404" xlink:href="#x" y="21.747"/><use x="239.5543" xlink:href="#x" y="21.747"/><use x="246.199" xlink:href="#x" y="21.747"/><use x="252.831745" xlink:href="#x" y="21.747"/><use x="259.476445" xlink:href="#x" y="21.747"/><use x="266.121146" xlink:href="#x" y="21.747"/><use x="272.765846" xlink:href="#x" y="21.747"/><use x="279.398591" xlink:href="#x" y="21.747"/><use x="284.548891" xlink:href="#y" y="21.747"/><use x="236.991" xlink:href="#z" y="28.92"/><use x="243.578" xlink:href="#F" y="28.92"/><use x="247.812514" xlink:href="#L" y="28.92"/><use x="252.047028" xlink:href="#K" y="28.92"/><use x="256.281542" xlink:href="#C" y="28.92"/><use x="260.516057" xlink:href="#M" y="28.92"/><use x="264.750571" xlink:href="#K" y="28.92"/><use x="268.985085" xlink:href="#J" y="28.92"/><use x="273.219599" xlink:href="#F" y="28.92"/><use x="277.454113" xlink:href="#B" y="28.92"/><use x="281.688627" xlink:href="#H" y="28.92"/><use x="285.92" xlink:href="#A" y="28.92"/><use x="248.107" xlink:href="#N" y="34.903"/><use x="250.214104" xlink:href="#O" y="34.903"/><use x="254.800716" xlink:href="#P" y="34.903"/><use x="258.041771" xlink:href="#Q" y="34.903"/><use x="261.518343" xlink:href="#P" y="34.903"/><use x="264.75342" xlink:href="#R" y="34.903"/><use x="268.072184" xlink:href="#S" y="34.903"/><use x="271.596577" xlink:href="#T" y="34.903"/><use x="274.308614" xlink:href="#P" y="34.903"/><use x="277.549669" xlink:href="#U" y="34.903"/><path d="m-.00178125.0011875h28.48828125" fill="none" stroke="#000" stroke-miterlimit="10" stroke-width=".398" transform="matrix(1 0 0 -1 299.826 10.259)"/><path d="m-.0015625-.001625v26.183594" fill="none" stroke="#000" stroke-miterlimit="10" stroke-width=".398" transform="matrix(1 0 0 -1 300.025 36.639)"/><use x="303.213" xlink:href="#j" y="21.747"/><use x="309.714238" xlink:href="#k" y="21.747"/><use x="317.124071" xlink:href="#a" y="21.747"/><use x="304.722" xlink:href="#d" y="32.455"/><use x="310.97457" xlink:href="#e" y="32.455"/><use x="313.727852" xlink:href="#f" y="32.455"/><use x="318.92956" xlink:href="#i" y="32.455"/><path d="m.00028125-.001625v26.183594" fill="none" stroke="#000" stroke-miterlimit="10" stroke-width=".398" transform="matrix(1 0 0 -1 328.113 36.639)"/><path d="m-.00178125-.00184375h28.48828125" fill="none" stroke="#000" stroke-miterlimit="10" stroke-width=".398" transform="matrix(1 0 0 -1 299.826 36.838)"/><use x="300.166" xlink:href="#o" y="44.702"/><use x="306.888779" xlink:href="#n" y="44.702"/><use x="308.908403" xlink:href="#m" y="44.702"/><use x="313.280003" xlink:href="#n" y="44.702"/><use x="315.299626" xlink:href="#v" y="44.702"/><use x="319.837004" xlink:href="#t" y="44.702"/><use x="323.599688" xlink:href="#w" y="44.702"/><use x="340.838" xlink:href="#Y" y="14.483"/><use x="344.083425" xlink:href="#Z" y="14.483"/><use x="347.984789" xlink:href="#aa" y="14.483"/><use x="352.217709" xlink:href="#ab" y="14.483"/><use x="356.284851" xlink:href="#Y" y="14.483"/><use x="359.530276" xlink:href="#ac" y="14.483"/><use x="331.633" xlink:href="#x" y="21.747"/><use x="334.99002" xlink:href="#x" y="21.747"/><use x="341.63472" xlink:href="#x" y="21.747"/><use x="348.267465" xlink:href="#x" y="21.747"/><use x="354.912165" xlink:href="#x" y="21.747"/><use x="361.556866" xlink:href="#x" y="21.747"/><use x="364.913886" xlink:href="#y" y="21.747"/><use x="334.836" xlink:href="#ad" y="29.275"/><use x="339.261" xlink:href="#ae" y="29.275"/><use x="344.02154" xlink:href="#af" y="29.275"/><use x="350.874232" xlink:href="#ag" y="29.275"/><use x="355.501672" xlink:href="#ah" y="29.275"/><use x="358.311133" xlink:href="#ai" y="29.275"/><use x="362.819021" xlink:href="#aj" y="29.275"/><use x="367.132439" xlink:href="#ak" y="29.275"/><use x="334.221" xlink:href="#V" y="34.754"/><use x="337.325765" xlink:href="#W" y="34.754"/><use x="340.700718" xlink:href="#U" y="34.754"/><use x="346.239563" xlink:href="#V" y="34.754"/><use x="349.344328" xlink:href="#W" y="34.754"/><use x="352.719281" xlink:href="#N" y="34.754"/><use x="354.826385" xlink:href="#X" y="34.754"/><use x="359.971903" xlink:href="#V" y="34.754"/><use x="363.076668" xlink:href="#T" y="34.754"/><use x="365.788706" xlink:href="#P" y="34.754"/><use x="369.02976" xlink:href="#U" y="34.754"/><path d="m-.00084375.0011875h28.48828175" fill="none" stroke="#000" stroke-miterlimit="10" stroke-width=".398" transform="matrix(1 0 0 -1 383.411 10.259)"/><path d="m-.000625-.001625v26.183594" fill="none" stroke="#000" stroke-miterlimit="10" stroke-width=".398" transform="matrix(1 0 0 -1 383.61 36.639)"/><use x="386.799" xlink:href="#j" y="21.747"/><use x="393.300238" xlink:href="#k" y="21.747"/><use x="400.710071" xlink:href="#a" y="21.747"/><use x="390.551" xlink:href="#d" y="32.455"/><use x="396.80357" xlink:href="#e" y="32.455"/><use x="399.556852" xlink:href="#f" y="32.455"/><path d="m.00121875-.001625v26.183594" fill="none" stroke="#000" stroke-miterlimit="10" stroke-width=".398" transform="matrix(1 0 0 -1 411.698 36.639)"/><path d="m-.00084375-.00184375h28.48828175" fill="none" stroke="#000" stroke-miterlimit="10" stroke-width=".398" transform="matrix(1 0 0 -1 383.411 36.838)"/><use x="380.189" xlink:href="#l" y="44.47"/><use x="384.256142" xlink:href="#m" y="44.47"/><use x="388.627742" xlink:href="#n" y="44.47"/><use x="390.647365" xlink:href="#o" y="44.47"/><use x="397.370145" xlink:href="#l" y="44.47"/><use x="401.437287" xlink:href="#p" y="44.47"/><use x="404.494617" xlink:href="#n" y="44.47"/><use x="406.51424" xlink:href="#q" y="44.47"/><use x="410.74716" xlink:href="#m" y="44.47"/></svg>